<svg xmlns="http://www.w3.org/2000/svg" viewBox="0 0 1200 675"><rect width="1200" height="675" fill="#1c1436"/><circle cx="1010" cy="510" r="270" fill="#6246d9" opacity=".7"/><circle cx="180" cy="130" r="220" fill="#16b8c4" opacity=".5"/><rect x="250" y="120" width="700" height="430" rx="34" fill="#fff"/><path d="M600 210a95 95 0 100 190 95 95 0 000-190z" fill="none" stroke="#e9e7fb" stroke-width="14"/><path d="M600 245a60 60 0 100 120" fill="none" stroke="#16b8c4" stroke-width="12" stroke-linecap="round"/><path d="M600 270a35 35 0 110 70" fill="none" stroke="#6246d9" stroke-width="12" stroke-linecap="round"/><circle cx="600" cy="305" r="10" fill="#6246d9"/><rect x="330" y="205" width="150" height="26" rx="13" fill="#e3fbfd"/><rect x="330" y="250" width="110" height="18" rx="9" fill="#dbe2ea"/><rect x="720" y="205" width="150" height="26" rx="13" fill="#f2e9ff"/><rect x="720" y="250" width="110" height="18" rx="9" fill="#dbe2ea"/><rect x="500" y="440" width="200" height="46" rx="23" fill="#16b8c4"/><path d="M545 463h110M620 448v30" stroke="#fff" stroke-width="8" stroke-linecap="round"/></svg>
