<svg xmlns="http://www.w3.org/2000/svg" viewBox="0 0 1200 675"><rect width="1200" height="675" fill="#1f1638"/><circle cx="1020" cy="530" r="270" fill="#6246d9" opacity=".7"/><circle cx="160" cy="130" r="220" fill="#16b8c4" opacity=".5"/><rect x="250" y="120" width="700" height="430" rx="34" fill="#fff"/><path d="M420 210l90-34 90 34v100c0 80-45 130-90 155-45-25-90-75-90-155z" fill="#e9e7fb"/><rect x="480" y="300" width="60" height="50" rx="8" fill="#6246d9"/><path d="M492 300v-18a18 18 0 0136 0v18" stroke="#6246d9" stroke-width="10" fill="none"/><rect x="660" y="215" width="220" height="46" rx="23" fill="#f2e9ff"/><circle cx="838" cy="238" r="18" fill="#16b8c4"/><rect x="660" y="285" width="220" height="46" rx="23" fill="#e3fbfd"/><circle cx="702" cy="308" r="18" fill="#dbe2ea"/><rect x="660" y="355" width="220" height="46" rx="23" fill="#f2e9ff"/><circle cx="838" cy="378" r="18" fill="#16b8c4"/></svg>
