<svg xmlns="http://www.w3.org/2000/svg" viewBox="0 0 1200 675"><rect width="1200" height="675" fill="#12202e"/><circle cx="1030" cy="150" r="230" fill="#16b8c4" opacity=".5"/><circle cx="170" cy="550" r="260" fill="#6246d9" opacity=".7"/><rect x="250" y="120" width="700" height="430" rx="34" fill="#fff"/><path d="M330 175h190v240l-95 40-95-40z" fill="#f2e9ff"/><rect x="350" y="215" width="150" height="16" rx="8" fill="#6246d9"/><rect x="350" y="250" width="150" height="12" rx="6" fill="#dbe2ea"/><rect x="350" y="275" width="120" height="12" rx="6" fill="#dbe2ea"/><rect x="350" y="300" width="150" height="12" rx="6" fill="#dbe2ea"/><circle cx="425" cy="365" r="26" fill="#16b8c4"/><path d="M414 365h22M425 353v24" stroke="#fff" stroke-width="5" stroke-linecap="round"/><path d="M600 300l40 30-40 30" stroke="#6246d9" stroke-width="10" stroke-linecap="round" stroke-linejoin="round" fill="none"/><rect x="700" y="255" width="180" height="150" rx="20" fill="#16b8c4"/><path d="M760 335l25 25 45-55" stroke="#fff" stroke-width="12" stroke-linecap="round" stroke-linejoin="round" fill="none"/></svg>
